<svg xmlns="http://www.w3.org/2000/svg" viewBox="0 0 28 28"><defs><style>.cls-1{fill:#666;}</style></defs><title>instagram</title><g id="レイヤー_2" data-name="レイヤー 2"><g id="レイヤー_2-2" data-name="レイヤー 2"><path class="cls-1" d="M14,2.52c3.74,0,4.18,0,5.66.08a7.75,7.75,0,0,1,2.6.48,4.34,4.34,0,0,1,1.61,1,4.34,4.34,0,0,1,1,1.61,7.75,7.75,0,0,1,.48,2.6c.07,1.48.08,1.92.08,5.66s0,4.18-.08,5.66a7.75,7.75,0,0,1-.48,2.6,4.64,4.64,0,0,1-2.66,2.66,7.75,7.75,0,0,1-2.6.48c-1.48.07-1.92.08-5.66.08s-4.18,0-5.66-.08a7.75,7.75,0,0,1-2.6-.48,4.34,4.34,0,0,1-1.61-1,4.34,4.34,0,0,1-1-1.61,7.75,7.75,0,0,1-.48-2.6c-.07-1.48-.08-1.92-.08-5.66s0-4.18.08-5.66a7.75,7.75,0,0,1,.48-2.6,4.34,4.34,0,0,1,1-1.61,4.34,4.34,0,0,1,1.61-1,7.75,7.75,0,0,1,2.6-.48c1.48-.07,1.92-.08,5.66-.08M14,0C10.2,0,9.72,0,8.23.08a10.28,10.28,0,0,0-3.4.65A6.86,6.86,0,0,0,2.35,2.35,6.86,6.86,0,0,0,.73,4.83a10.28,10.28,0,0,0-.65,3.4C0,9.72,0,10.2,0,14s0,4.28.08,5.77a10.28,10.28,0,0,0,.65,3.4,6.86,6.86,0,0,0,1.61,2.48,6.86,6.86,0,0,0,2.48,1.61,10.28,10.28,0,0,0,3.4.65C9.72,28,10.2,28,14,28s4.28,0,5.77-.08a10.28,10.28,0,0,0,3.4-.65,7.16,7.16,0,0,0,4.09-4.09,10.28,10.28,0,0,0,.65-3.4C28,18.28,28,17.8,28,14s0-4.28-.08-5.77a10.28,10.28,0,0,0-.65-3.4,6.86,6.86,0,0,0-1.61-2.48A6.86,6.86,0,0,0,23.17.73a10.28,10.28,0,0,0-3.4-.65C18.28,0,17.8,0,14,0Z"/><path class="cls-1" d="M14,6.81A7.19,7.19,0,1,0,21.19,14,7.19,7.19,0,0,0,14,6.81Zm0,11.86A4.67,4.67,0,1,1,18.67,14,4.67,4.67,0,0,1,14,18.67Z"/><circle class="cls-1" cx="21.47" cy="6.53" r="1.68"/></g></g></svg>